<?xml version="1.0" encoding="utf-8"?>
<!-- Generator: Adobe Illustrator 20.0.0, SVG Export Plug-In . SVG Version: 6.00 Build 0)  -->
<svg version="1.1" id="Layer_1" xmlns="http://www.w3.org/2000/svg" xmlns:xlink="http://www.w3.org/1999/xlink" x="0px" y="0px"
	 viewBox="0 0 300 82" style="enable-background:new 0 0 300 82;" xml:space="preserve">
<style type="text/css">
	.st0{fill:#221F1F;}
	.st1{fill:#FFFFFF;}
</style>
<rect y="0" class="st0" width="49.4" height="82"/>
<g>
	<path class="st1" d="M20.3,8h0.8v19.6h-0.8c-0.6-5-1.5-9.8-2.8-14.4c-0.6-2-1.1-3.3-1.5-4c-0.5-0.7-1.1-1.1-1.8-1.1
		c-0.9,0-1.6,0.6-2.1,1.8c-0.5,1.4-0.8,3.7-0.9,7.1c-0.1,4-0.2,9.6-0.2,16.9c0,8.3,0.1,16.2,0.2,23.4c0.1,3.9,0.2,7,0.4,9.2
		c0.2,1.9,0.4,3.4,0.6,4.5c0.5,2.1,1.4,3.1,2.6,3.1c1.7,0,3.2-2,4.4-6.1c0.6-2,1-4.1,1.3-6.3s0.4-5.4,0.5-9.6v-1h0.9v1
		c0,6.8-0.6,12.2-1.7,16.2c-0.6,2.2-1.4,3.9-2.3,5s-2,1.7-3.2,1.7c-2.4,0-4.4-2-6.3-6.1c-0.4-1-0.8-2.1-1.1-3.3
		c-0.3-1.2-0.7-2.6-1-4.2c-0.3-1.4-0.6-3.1-0.9-5c-0.8-5.5-1.2-10.8-1.2-16.1c0-5.6,0.5-11.2,1.4-17c0.9-5.7,2.1-9.7,3.4-12.1
		c1.5-2.7,3.1-4,5-4c1.6,0,2.9,1.1,3.9,3.3l0.3,0.6c0.3,0.6,0.5,0.8,0.9,0.8C19.9,12,20.3,10.7,20.3,8z"/>
</g>
<g>
	<path class="st1" d="M35.3,38.7c2,0.4,3.7,1.2,5,2.4c1.5,1.4,2.6,3.3,3.5,6c0.8,2.7,1.3,5.6,1.3,8.7c0,3.5-0.5,6.8-1.6,9.8
		c-1,3-2.4,5.2-4.2,6.6c-1,0.7-2.1,1.3-3.2,1.6c-1.1,0.3-2.6,0.5-4.5,0.5h-8.9v-0.9h3.5V9h-3.5V8h8.6c2.1,0,3.7,0.1,4.8,0.4
		c1.1,0.4,2.2,0.9,3.2,1.7c1.1,0.9,2.1,2,2.8,3.3s1.3,2.8,1.7,4.5s0.6,3.5,0.6,5.4c0,4.3-0.7,7.7-2.2,10.2
		C40.7,36.1,38.4,37.8,35.3,38.7z M32.3,9v29.4c1.8-0.2,3.1-0.6,3.9-1.3c0.8-0.7,1.4-2,1.7-3.7s0.4-4.5,0.4-8.2
		c0-4.7-0.1-8.2-0.4-10.3c-0.3-2.2-0.9-3.7-1.7-4.5C35.3,9.4,34,9,32.3,9z M32.3,39.2v34.1c1.9,0,3.3-0.5,4.2-1.3
		c0.8-0.8,1.4-2.3,1.7-4.5s0.4-5.7,0.4-10.4c0-6-0.2-10.4-0.5-13.2c-0.2-1.7-0.8-2.9-1.6-3.6C35.6,39.7,34.2,39.3,32.3,39.2z"/>
</g>
<g>
	<path class="st0" d="M79.1,40.5c-0.2,0.4-0.3,0.8-0.4,1.2s-0.2,0.8-0.2,1.2c-0.7,0.4-1.6,0.7-2.6,1s-2.2,0.4-3.6,0.4
		c-1.8,0-3.3-0.3-4.7-0.8c-1.4-0.5-2.6-1.2-3.5-2.1c-1-0.9-1.7-2-2.2-3.3s-0.8-2.7-0.8-4.2c0-2,0.3-3.7,0.9-5.2
		c0.6-1.4,1.5-2.6,2.6-3.6c1.1-0.9,2.3-1.6,3.8-2.1c1.4-0.4,3-0.7,4.6-0.7c1.2,0,2.3,0.2,3.5,0.5c1.1,0.3,2.1,0.6,2.9,1
		c-0.4,1-0.6,1.9-0.6,2.9h-0.4c-0.7-0.8-1.5-1.5-2.4-2S74.1,24,73,24c-0.9,0-1.8,0.2-2.7,0.6c-0.9,0.4-1.7,0.9-2.4,1.7
		c-0.7,0.8-1.2,1.7-1.7,2.9c-0.4,1.2-0.6,2.6-0.6,4.2s0.2,3,0.6,4.1s1,2.1,1.7,2.8s1.5,1.3,2.4,1.6s1.8,0.5,2.8,0.5
		c1.1,0,2.1-0.2,3.1-0.7s1.9-1,2.6-1.6L79.1,40.5z"/>
	<path class="st0" d="M84.7,31.3c0-1.6,0-3-0.1-4.3c0-1.3-0.1-2.6-0.2-4c0.3,0,0.6,0.1,1,0.1s0.8,0,1.2,0c0.4,0,0.8,0,1.2,0
		c0.4,0,0.7-0.1,1.1-0.1c-0.1,1-0.2,2-0.2,3s0,2,0,3.1V38c0,1.1,0,2.1,0,3.1s0.1,1.9,0.2,2.9c-0.3,0-0.7-0.1-1.1-0.1s-0.8,0-1.2,0
		c-0.5,0-0.9,0-1.2,0c-0.4,0-0.7,0.1-1,0.1l0.1-1.9c0.1-1,0.1-2,0.1-3s0-2.1,0-3.4L84.7,31.3L84.7,31.3z"/>
	<path class="st0" d="M99.9,28.6c0-0.7,0-1.3,0-2c0-0.6,0-1.2-0.1-1.6c-0.4,0-0.8,0-1.3,0s-1,0-1.5,0.1c-0.5,0-1,0.1-1.6,0.1
		c-0.5,0-1,0.1-1.4,0.2c0.1-0.4,0.1-0.8,0.1-1.2c0-0.4,0-0.8-0.1-1.2c1,0.1,1.9,0.1,2.8,0.1c0.8,0,1.8,0,2.7,0h4.6c1,0,2,0,2.8,0
		s1.7-0.1,2.7-0.1c-0.1,0.4-0.1,0.8-0.1,1.2c0,0.4,0,0.8,0.1,1.2c-0.4-0.1-0.9-0.1-1.4-0.2c-0.5,0-1-0.1-1.5-0.1s-1-0.1-1.5-0.1
		s-0.9,0-1.3,0c0,0.2-0.1,0.5-0.1,0.8s0,0.6,0,0.9V38c0,2.1,0.1,4.1,0.3,6c-0.3,0-0.7-0.1-1.1-0.1s-0.8,0-1.2,0c-0.4,0-0.8,0-1.2,0
		c-0.4,0-0.7,0.1-1,0.1l0.1-1.9c0.1-1,0.1-2,0.1-3s0-2.1,0-3.4L99.9,28.6L99.9,28.6z"/>
	<path class="st0" d="M114.9,31.3c0-1.6,0-3-0.1-4.3c0-1.3-0.1-2.6-0.2-4c0.3,0,0.6,0.1,1,0.1s0.8,0,1.2,0c0.4,0,0.8,0,1.2,0
		c0.4,0,0.7-0.1,1.1-0.1c-0.1,1-0.2,2-0.2,3s0,2,0,3.1V38c0,1.1,0,2.1,0,3.1s0.1,1.9,0.2,2.9c-0.3,0-0.7-0.1-1.1-0.1s-0.8,0-1.2,0
		c-0.5,0-0.9,0-1.2,0c-0.4,0-0.7,0.1-1,0.1l0.1-1.9c0.1-1,0.1-2,0.1-3s0-2.1,0-3.4L114.9,31.3L114.9,31.3z"/>
	<path class="st0" d="M124.1,43.4c0.8-1.2,1.7-2.6,2.7-4.2c1-1.5,2-3.1,3-4.7c1-1.6,2-3.2,3-4.8c1-1.6,1.8-3.1,2.6-4.4l0.1-0.3
		c-0.3,0-0.7,0-1,0s-0.7,0-1,0c-1.4,0-2.8,0-4.2,0.1c-1.5,0-2.8,0.1-3.9,0.3c0-0.2,0.1-0.4,0.1-0.6s0-0.4,0-0.6s0-0.4,0-0.6
		s-0.1-0.4-0.1-0.6l2.2,0.1h2.1h2.1h4c0.9,0,1.7,0,2.6,0c0.8,0,1.8-0.1,2.9-0.1v0.6l-2.7,4.2c-1.4,2.2-2.9,4.6-4.4,7
		s-2.9,4.7-4.1,6.8c0,0.1-0.1,0.2-0.1,0.2v0.1c0.2,0,0.5,0,0.7,0s0.5,0,0.7,0h1.3c2,0,3.7-0.1,5.1-0.1c1.4,0,2.6-0.1,3.5-0.2
		c0,0.2-0.1,0.4-0.1,0.6c0,0.2,0,0.4,0,0.6c0,0.2,0,0.4,0,0.6c0,0.2,0.1,0.4,0.1,0.6c-0.3,0-0.7,0-1,0s-0.6,0-0.9,0h-1.8
		c-0.6,0-1.2,0-1.8,0s-1.3,0-1.9,0c-1.1,0-2.2,0-3.2,0s-2,0-2.8,0s-1.6,0-2.2,0s-1.1,0-1.4,0v-0.6H124.1z"/>
	<path class="st0" d="M146.5,31.3c0-1.6,0-3.1-0.1-4.3c0-1.3-0.1-2.6-0.2-4c0.9,0,1.7,0.1,2.7,0.1c0.9,0,1.8,0,2.7,0
		c1.4,0,2.6,0,3.7,0c1.1,0,1.9-0.1,2.4-0.1l-0.1,0.6c0,0.1,0,0.3,0,0.6c0,0.3,0,0.5,0,0.7s0.1,0.4,0.1,0.6c-0.6,0-1.2-0.1-1.9-0.1
		s-1.3-0.1-2-0.1c-0.6,0-1.3-0.1-1.8-0.1c-0.6,0-1.1,0-1.5,0l-0.1,1.8v1.8v1.8v1.6h2c1,0,1.9,0,2.7-0.1c0.8,0,1.6-0.1,2.4-0.2
		c-0.1,0.3-0.1,0.5-0.1,0.7s0,0.3,0,0.5s0,0.4,0,0.5c0,0.2,0.1,0.4,0.1,0.7c-1.1-0.1-2.3-0.2-3.6-0.2s-2.4,0-3.5,0v6.2
		c0,0.3,0,0.7,0,0.9c0,0.3,0,0.6,0.1,0.9c1.2,0,2.4,0,3.7-0.1s2.5-0.2,3.6-0.3l-0.1,0.6c0,0.1,0,0.4,0,0.7s0,0.5,0,0.7
		s0.1,0.4,0.1,0.5c-0.6,0-1.4,0-2.2-0.1c-0.8,0-1.9-0.1-3.2-0.1c-1,0-1.9,0-2.6,0c-0.7,0-1.2,0-1.7,0s-0.8,0-1.1,0s-0.5,0-0.8,0
		c0.1-1.3,0.1-2.6,0.2-3.9c0-1.3,0.1-2.8,0.1-4.4L146.5,31.3L146.5,31.3z"/>
	<path class="st0" d="M181.6,44c-0.2,0-0.3-0.1-0.5-0.1c-0.1,0-0.3,0-0.5,0s-0.3,0-0.5,0c-0.1,0-0.3,0-0.4,0.1
		c-2.2-2.6-4.5-5.1-6.8-7.6s-4.7-5.1-7.1-7.6c0,0.3,0,0.7,0,1.1s0,0.8,0,1.2v2.7c0,2.9,0,5.1,0,6.8c0,1.6,0.1,2.7,0.1,3.3
		c-0.5-0.1-0.9-0.1-1.3-0.1c-0.5,0-0.9,0-1.4,0.1c0-0.2,0.1-0.9,0.2-1.9c0.1-1,0.2-2.2,0.2-3.6c0.1-1.4,0.1-2.9,0.2-4.5
		c0-1.6,0.1-3.1,0.1-4.5c0-1.5,0-2.8,0-3.9s-0.1-2-0.1-2.7c0.2,0,0.4,0.1,0.5,0.1c0.2,0,0.3,0,0.5,0s0.4,0,0.6,0
		c0.2,0,0.4,0,0.6-0.1c2.2,2.6,4.5,5.1,6.9,7.7s4.7,5,6.8,7.3v-2.7c0-1.2,0-2.4,0-3.6c0-1.2,0-2.4,0-3.5s0-2.1-0.1-3
		c0-0.9-0.1-1.6-0.1-2.1c0.4,0.1,0.8,0.1,1.2,0.1s0.9,0,1.3-0.1c-0.1,1.7-0.2,3.5-0.3,5.2s-0.1,3.3-0.1,4.7c0,0.9-0.1,1.8-0.1,2.7
		s0,1.9,0,2.9V44H181.6z"/>
	<path class="st0" d="M189,39.4c0.2,0.9,0.7,1.6,1.4,2.3c0.8,0.6,1.7,1,3,1c1.2,0,2.2-0.3,2.8-1c0.6-0.6,0.9-1.5,0.9-2.4
		c0-0.8-0.2-1.5-0.7-2c-0.4-0.5-1-0.9-1.7-1.3c-0.7-0.4-1.4-0.7-2.2-1.1c-0.8-0.3-1.5-0.8-2.2-1.2c-0.7-0.5-1.3-1.1-1.7-1.8
		s-0.7-1.7-0.7-2.8c0-1,0.2-1.9,0.5-2.7c0.4-0.8,0.8-1.5,1.5-2c0.6-0.6,1.3-1,2.1-1.3s1.7-0.4,2.7-0.4c1.1,0,2,0.1,2.8,0.4
		s1.5,0.6,2.1,1.1c-0.2,0.4-0.3,0.9-0.5,1.3c-0.1,0.4-0.3,1-0.5,1.6h-0.4c-0.3-0.8-0.7-1.4-1.3-1.9s-1.4-0.8-2.3-0.8
		c-1,0-1.8,0.3-2.4,0.9c-0.6,0.6-0.9,1.3-0.9,2.2c0,0.8,0.2,1.4,0.7,1.9s1,0.9,1.7,1.3s1.4,0.7,2.2,1.1c0.8,0.3,1.5,0.7,2.2,1.2
		s1.3,1.1,1.7,1.8c0.5,0.7,0.7,1.7,0.7,2.8c0,1-0.2,1.9-0.6,2.8c-0.4,0.8-0.9,1.6-1.6,2.2c-0.7,0.6-1.5,1.1-2.5,1.4
		c-1,0.3-2.1,0.5-3.3,0.5s-2.2-0.1-3-0.4c-0.8-0.3-1.5-0.6-1.9-1c0.2-0.6,0.3-1.2,0.5-1.8c0.1-0.5,0.2-1.1,0.3-1.8h0.6V39.4z"/>
</g>
<g>
	<path class="st0" d="M216.2,31.3c0-1.6,0-3.1-0.1-4.3c-0.1-1.3-0.1-2.6-0.2-4c0.4,0,0.8,0.1,1.2,0.1s0.9,0,1.4,0
		c0.8,0,1.6,0,2.4-0.1c0.9,0,1.7-0.1,2.4-0.1c0.9,0,1.7,0.1,2.5,0.3c0.8,0.2,1.4,0.4,2,0.8s1,0.8,1.3,1.4s0.5,1.3,0.5,2.1
		s-0.2,1.5-0.5,2.1s-0.7,1.1-1.2,1.5s-1,0.7-1.6,1c-0.6,0.2-1.2,0.4-1.7,0.5l0,0c0.6,0,1.2,0.1,1.8,0.3c0.7,0.2,1.3,0.5,1.8,0.9
		c0.6,0.4,1,0.9,1.4,1.6c0.4,0.6,0.6,1.4,0.6,2.3c0,1.1-0.2,2.1-0.6,2.8c-0.4,0.8-1,1.4-1.7,1.9s-1.5,0.8-2.4,1s-1.8,0.3-2.7,0.3
		c-0.7,0-1.4,0-2.1-0.1c-0.6,0-1.3-0.1-2-0.1c-0.6,0-1.1,0-1.7,0c-0.6,0-1,0.1-1.4,0.1l0.1-1.9l0.1-2c0-0.7,0.1-1.4,0.1-2.1
		c0-0.7,0-1.5,0-2.3v-4H216.2z M221.7,32.2c0.5,0,1-0.1,1.5-0.2c0.5-0.2,0.9-0.4,1.3-0.7c0.4-0.3,0.7-0.7,0.9-1.2s0.4-1.1,0.4-1.8
		c0-1.1-0.3-2-0.9-2.7c-0.6-0.6-1.6-1-2.8-1c-0.5,0-0.9,0-1,0l-0.6,0.1c-0.1,0.8-0.1,1.6-0.1,2.4s0,1.6,0,2.2c0,0.5,0,1,0,1.5
		s0,0.9,0,1.4H221.7z M220.2,33.7c0,0.5,0,0.9,0,1.4s0,1,0,1.6v1.5c0,0.7,0,1.5,0,2.2s0.1,1.3,0.1,1.8c0.3,0,0.6,0.1,0.9,0.1
		c0.3,0,0.7,0,1,0c1,0,1.9-0.4,2.6-1.1c0.8-0.7,1.2-1.8,1.2-3.3s-0.4-2.6-1.2-3.2c-0.8-0.7-1.9-1-3.3-1H220.2z"/>
	<path class="st0" d="M242.9,22.7c0.2,0,0.3,0.1,0.5,0.1c0.1,0,0.3,0,0.5,0s0.3,0,0.4,0c0.1,0,0.3-0.1,0.5-0.1
		c0.6,1.8,1.4,3.6,2.1,5.7c0.8,2,1.5,4,2.3,5.9s1.5,3.8,2.3,5.4c0.7,1.7,1.4,3.1,1.9,4.2c-0.3,0-0.5-0.1-0.7-0.1s-0.4,0-0.7,0
		c-0.2,0-0.4,0-0.6,0h-0.6l-2.1,0.1c-0.3-1-0.7-2.1-1.1-3.3c-0.4-1.2-0.8-2.3-1.3-3.4c-0.3,0-0.7,0-1,0s-0.6,0-1,0h-3.6
		c-0.3,0-0.6,0-0.8,0c-0.3,0-0.6,0-0.8,0c-1,2.4-1.7,4.6-2.3,6.7c-0.2,0-0.5-0.1-0.7-0.1s-0.4,0-0.7,0c-0.2,0-0.4,0-0.7,0
		c-0.2,0-0.5,0.1-0.7,0.1c0.5-1.1,1.1-2.5,1.8-4.2s1.5-3.5,2.3-5.4s1.6-3.9,2.5-6C241.4,26.4,242.2,24.5,242.9,22.7z M245.7,35.5
		l-2.9-7.4c-0.5,1.2-1,2.4-1.5,3.7c-0.5,1.2-1,2.5-1.4,3.7H245.7z"/>
	<path class="st0" d="M276.5,44c-0.2,0-0.3-0.1-0.5-0.1c-0.1,0-0.3,0-0.5,0s-0.3,0-0.5,0c-0.1,0-0.3,0-0.4,0.1
		c-2.2-2.6-4.5-5.1-6.8-7.6s-4.7-5.1-7.1-7.6c0,0.3,0,0.7,0,1.1s0,0.8,0,1.2v2.7c0,2.9,0,5.1,0,6.8c0,1.6,0.1,2.7,0.1,3.3
		c-0.5-0.1-0.9-0.1-1.3-0.1c-0.5,0-0.9,0-1.4,0.1c0-0.2,0.1-0.9,0.2-1.9s0.2-2.2,0.2-3.6c0.1-1.4,0.1-2.9,0.2-4.5
		c0-1.6,0.1-3.1,0.1-4.5c0-1.5,0-2.8,0-3.9s-0.1-2-0.1-2.7c0.2,0,0.4,0.1,0.5,0.1c0.2,0,0.3,0,0.5,0s0.4,0,0.6,0s0.4,0,0.6-0.1
		c2.2,2.6,4.5,5.1,6.9,7.7s4.7,5,6.8,7.3v-2.7c0-1.2,0-2.4,0-3.6c0-1.2,0-2.4,0-3.5s0-2.1-0.1-3c0-0.9-0.1-1.6-0.1-2.1
		c0.4,0.1,0.8,0.1,1.2,0.1c0.4,0,0.9,0,1.3-0.1c-0.1,1.7-0.2,3.5-0.3,5.2c-0.1,1.7-0.1,3.3-0.1,4.7c0,0.9-0.1,1.8-0.1,2.7
		s0,1.9,0,2.9L276.5,44L276.5,44z"/>
	<path class="st0" d="M283.9,42c0.1-1,0.1-2,0.1-3s0-2.1,0-3.4v-4.4c0-1.6,0-3-0.1-4.3c0-1.3-0.1-2.6-0.2-4c0.3,0,0.6,0.1,1,0.1
		s0.8,0,1.2,0c0.4,0,0.8,0,1.2,0c0.4,0,0.7-0.1,1.1-0.1c-0.1,0.6-0.2,1.5-0.2,2.4c0,1-0.1,2-0.1,3.2v2.3c0,0.3,0,0.6,0,0.9
		c0,0.4,0,0.6,0.1,0.9c0.1-0.1,0.2-0.3,0.4-0.4c0.1-0.2,0.3-0.3,0.5-0.5c0.6-0.7,1.3-1.5,2.1-2.4c0.7-0.8,1.4-1.6,2.1-2.4
		s1.3-1.5,1.9-2.2s1-1.3,1.4-1.8c0.2,0,0.5,0.1,0.8,0.1s0.5,0,0.9,0c0.2,0,0.5,0,0.8,0s0.6-0.1,0.9-0.1c-0.5,0.4-1.1,1-1.8,1.8
		c-0.8,0.8-1.5,1.6-2.4,2.5c-0.8,0.9-1.6,1.8-2.4,2.6c-0.8,0.8-1.3,1.5-1.8,2.1c0.7,1,1.5,2,2.3,3.2c0.8,1.1,1.6,2.2,2.4,3.3
		s1.5,2.1,2.3,3.1c0.7,1,1.3,1.8,1.9,2.4c-0.6,0-1-0.1-1.5-0.1c-0.4,0-0.8,0-1.2,0c-0.4,0-0.8,0-1.2,0c-0.4,0-0.8,0.1-1.2,0.1
		c-0.6-0.8-1.2-1.7-1.9-2.6c-0.7-0.9-1.3-1.8-1.9-2.7s-1.2-1.7-1.8-2.5c-0.6-0.8-1-1.5-1.4-2.1h-0.1v2c0,1.7,0,3.1,0,4.5
		c0,1.3,0.1,2.4,0.2,3.3c-0.3,0-0.7-0.1-1.1-0.1s-0.8,0-1.2,0c-0.5,0-0.9,0-1.2,0c-0.4,0-0.7,0.1-1,0.1L283.9,42z"/>
</g>
<g>
	<path d="M64.4,60.8c0.6,0.4,1.4,0.7,2.3,0.7c1.3,0,2.1-0.7,2.1-1.7c0-0.9-0.5-1.5-1.9-2c-1.6-0.6-2.7-1.4-2.7-2.9
		c0-1.6,1.3-2.7,3.3-2.7c1,0,1.8,0.2,2.2,0.5l-0.4,1.1c-0.3-0.2-1-0.5-1.9-0.5c-1.4,0-1.9,0.8-1.9,1.5c0,0.9,0.6,1.4,2,2
		c1.7,0.7,2.6,1.5,2.6,3c0,1.6-1.2,2.9-3.5,2.9c-1,0-2-0.3-2.6-0.6L64.4,60.8z"/>
	<path d="M72,55.1l1,3.7c0.2,0.8,0.4,1.6,0.5,2.3h0c0.2-0.7,0.4-1.5,0.6-2.3l1.2-3.7h1.1l1.1,3.6c0.3,0.9,0.5,1.6,0.6,2.4h0
		c0.1-0.7,0.3-1.5,0.6-2.4l1-3.6h1.3l-2.3,7.3h-1.2l-1.1-3.5c-0.3-0.8-0.5-1.5-0.6-2.4h0c-0.2,0.9-0.4,1.6-0.7,2.4l-1.2,3.5h-1.2
		l-2.2-7.3H72z"/>
	<path d="M86.4,62.4l-0.1-0.9h0c-0.4,0.6-1.2,1.1-2.2,1.1c-1.5,0-2.2-1-2.2-2.1c0-1.8,1.6-2.7,4.4-2.7v-0.1c0-0.6-0.2-1.7-1.6-1.7
		c-0.7,0-1.4,0.2-1.9,0.5l-0.3-0.9c0.6-0.4,1.5-0.6,2.4-0.6c2.2,0,2.8,1.5,2.8,3v2.7c0,0.6,0,1.2,0.1,1.7H86.4z M86.2,58.7
		c-1.4,0-3.1,0.2-3.1,1.6c0,0.9,0.6,1.3,1.2,1.3c0.9,0,1.5-0.6,1.8-1.2c0-0.1,0.1-0.3,0.1-0.4V58.7z"/>
	<path d="M90.9,53.1c0,0.5-0.3,0.8-0.8,0.8c-0.5,0-0.8-0.4-0.8-0.8c0-0.5,0.3-0.8,0.8-0.8C90.6,52.3,90.9,52.6,90.9,53.1z
		 M89.5,62.4v-7.3h1.3v7.3H89.5z"/>
	<path d="M92.8,57.1c0-0.8,0-1.4-0.1-2h1.2l0.1,1.2h0c0.4-0.7,1.2-1.4,2.4-1.4c1,0,2.6,0.6,2.6,3.1v4.3h-1.3v-4.2
		c0-1.2-0.4-2.1-1.7-2.1c-0.9,0-1.5,0.6-1.8,1.4c-0.1,0.2-0.1,0.4-0.1,0.6v4.4h-1.3V57.1z"/>
	<path d="M100.7,61.1c0.4,0.3,1.1,0.5,1.7,0.5c1,0,1.4-0.5,1.4-1.1c0-0.6-0.4-1-1.4-1.3c-1.3-0.5-1.9-1.2-1.9-2.1
		c0-1.2,0.9-2.1,2.5-2.1c0.7,0,1.4,0.2,1.8,0.5l-0.3,1c-0.3-0.2-0.8-0.4-1.5-0.4c-0.8,0-1.2,0.5-1.2,1c0,0.6,0.4,0.9,1.4,1.2
		c1.3,0.5,1.9,1.1,1.9,2.2c0,1.3-1,2.2-2.7,2.2c-0.8,0-1.5-0.2-2-0.5L100.7,61.1z"/>
	<path d="M106.6,62.4c0-0.5,0.1-1.2,0.1-1.9v-8.8h1.3v4.6h0c0.5-0.8,1.3-1.3,2.5-1.3c1.8,0,3.1,1.5,3.1,3.7c0,2.6-1.6,3.9-3.3,3.9
		c-1.1,0-1.9-0.4-2.4-1.4h0l-0.1,1.2H106.6z M107.9,59.5c0,0.2,0,0.3,0.1,0.5c0.3,0.9,1,1.5,2,1.5c1.4,0,2.2-1.1,2.2-2.8
		c0-1.5-0.8-2.7-2.2-2.7c-0.9,0-1.7,0.6-2,1.6c0,0.2-0.1,0.3-0.1,0.5V59.5z"/>
	<path d="M121.7,58.7c0,2.7-1.9,3.9-3.6,3.9c-2,0-3.5-1.4-3.5-3.7c0-2.4,1.6-3.9,3.6-3.9C120.3,55,121.7,56.5,121.7,58.7z M116,58.8
		c0,1.6,0.9,2.8,2.2,2.8c1.3,0,2.2-1.2,2.2-2.8c0-1.2-0.6-2.8-2.2-2.8C116.6,56,116,57.4,116,58.8z"/>
	<path d="M123.3,57.4c0-0.9,0-1.6-0.1-2.3h1.2l0,1.4h0.1c0.3-1,1.1-1.6,2-1.6c0.1,0,0.3,0,0.4,0v1.2c-0.1,0-0.3,0-0.4,0
		c-0.9,0-1.6,0.7-1.8,1.7c0,0.2-0.1,0.4-0.1,0.6v3.9h-1.3V57.4z"/>
	<path d="M134.6,58.7c0,2.7-1.9,3.9-3.6,3.9c-2,0-3.5-1.4-3.5-3.7c0-2.4,1.6-3.9,3.6-3.9C133.2,55,134.6,56.5,134.6,58.7z
		 M128.8,58.8c0,1.6,0.9,2.8,2.2,2.8c1.3,0,2.2-1.2,2.2-2.8c0-1.2-0.6-2.8-2.2-2.8C129.5,56,128.8,57.4,128.8,58.8z"/>
	<path d="M142.1,58.5c0-0.9,0.7-1.6,1.6-1.6s1.6,0.7,1.6,1.6c0,0.9-0.7,1.6-1.6,1.6C142.8,60,142.1,59.4,142.1,58.5z"/>
	<path d="M153.2,52.3h1.3v9h4.3v1.1h-5.6V52.3z"/>
	<path d="M164.4,62.4l-0.1-0.9h0c-0.4,0.6-1.2,1.1-2.2,1.1c-1.5,0-2.2-1-2.2-2.1c0-1.8,1.6-2.7,4.4-2.7v-0.1c0-0.6-0.2-1.7-1.6-1.7
		c-0.7,0-1.4,0.2-1.9,0.5l-0.3-0.9c0.6-0.4,1.5-0.6,2.4-0.6c2.2,0,2.8,1.5,2.8,3v2.7c0,0.6,0,1.2,0.1,1.7H164.4z M164.2,58.7
		c-1.4,0-3.1,0.2-3.1,1.6c0,0.9,0.6,1.3,1.2,1.3c0.9,0,1.5-0.6,1.8-1.2c0-0.1,0.1-0.3,0.1-0.4V58.7z"/>
	<path d="M173.5,60.4c0,0.8,0,1.4,0.1,2h-1.2l-0.1-1.2h0c-0.3,0.6-1.1,1.3-2.4,1.3c-1.1,0-2.5-0.6-2.5-3.2v-4.2h1.3v4
		c0,1.4,0.4,2.3,1.6,2.3c0.9,0,1.5-0.6,1.7-1.2c0.1-0.2,0.1-0.4,0.1-0.7v-4.5h1.3V60.4z"/>
	<path d="M175.5,57.4c0-0.9,0-1.6-0.1-2.3h1.2l0,1.4h0.1c0.3-1,1.1-1.6,2-1.6c0.2,0,0.3,0,0.4,0v1.2c-0.1,0-0.3,0-0.5,0
		c-0.9,0-1.6,0.7-1.8,1.7c0,0.2-0.1,0.4-0.1,0.6v3.9h-1.3V57.4z"/>
	<path d="M180.9,59c0,1.8,1.2,2.5,2.5,2.5c0.9,0,1.5-0.2,2-0.4l0.2,0.9c-0.5,0.2-1.3,0.5-2.4,0.5c-2.2,0-3.6-1.5-3.6-3.7
		c0-2.2,1.3-3.9,3.4-3.9c2.4,0,3,2.1,3,3.4c0,0.3,0,0.5,0,0.6H180.9z M184.8,58.1c0-0.8-0.3-2.1-1.8-2.1c-1.3,0-1.9,1.2-2,2.1H184.8
		z"/>
	<path d="M187.6,57.1c0-0.8,0-1.4-0.1-2h1.2l0.1,1.2h0c0.4-0.7,1.2-1.4,2.4-1.4c1,0,2.6,0.6,2.6,3.1v4.3h-1.3v-4.2
		c0-1.2-0.4-2.1-1.7-2.1c-0.9,0-1.5,0.6-1.8,1.4c-0.1,0.2-0.1,0.4-0.1,0.6v4.4h-1.3V57.1z"/>
	<path d="M195.5,61.1c0.4,0.3,1.1,0.5,1.7,0.5c1,0,1.4-0.5,1.4-1.1c0-0.6-0.4-1-1.3-1.3c-1.3-0.5-1.9-1.2-1.9-2.1
		c0-1.2,0.9-2.1,2.5-2.1c0.7,0,1.4,0.2,1.8,0.5l-0.3,1c-0.3-0.2-0.8-0.4-1.5-0.4c-0.8,0-1.2,0.5-1.2,1c0,0.6,0.4,0.9,1.4,1.2
		c1.3,0.5,1.9,1.1,1.9,2.2c0,1.3-1,2.2-2.7,2.2c-0.8,0-1.5-0.2-2-0.5L195.5,61.1z"/>
	<path d="M211.9,62.1c-0.5,0.2-1.4,0.5-2.7,0.5c-2.9,0-5-1.8-5-5.1c0-3.2,2.1-5.3,5.3-5.3c1.3,0,2.1,0.3,2.4,0.5l-0.3,1.1
		c-0.5-0.2-1.2-0.4-2-0.4c-2.4,0-3.9,1.5-3.9,4.2c0,2.5,1.4,4.1,3.9,4.1c0.8,0,1.6-0.2,2.1-0.4L211.9,62.1z"/>
	<path d="M219.8,58.7c0,2.7-1.9,3.9-3.6,3.9c-2,0-3.5-1.4-3.5-3.7c0-2.4,1.6-3.9,3.6-3.9C218.3,55,219.8,56.5,219.8,58.7z M214,58.8
		c0,1.6,0.9,2.8,2.2,2.8c1.3,0,2.2-1.2,2.2-2.8c0-1.2-0.6-2.8-2.2-2.8C214.7,56,214,57.4,214,58.8z"/>
	<path d="M227.4,60.4c0,0.8,0,1.4,0.1,2h-1.2l-0.1-1.2h0c-0.3,0.6-1.1,1.3-2.4,1.3c-1.1,0-2.5-0.6-2.5-3.2v-4.2h1.3v4
		c0,1.4,0.4,2.3,1.6,2.3c0.9,0,1.5-0.6,1.7-1.2c0.1-0.2,0.1-0.4,0.1-0.7v-4.5h1.3V60.4z"/>
	<path d="M229.4,57.1c0-0.8,0-1.4-0.1-2h1.2l0.1,1.2h0c0.4-0.7,1.2-1.4,2.4-1.4c1,0,2.6,0.6,2.6,3.1v4.3h-1.3v-4.2
		c0-1.2-0.4-2.1-1.7-2.1c-0.9,0-1.5,0.6-1.8,1.4c-0.1,0.2-0.1,0.4-0.1,0.6v4.4h-1.3V57.1z"/>
	<path d="M239.1,53.1v2.1h1.9v1h-1.9v3.9c0,0.9,0.3,1.4,1,1.4c0.3,0,0.6,0,0.8-0.1l0.1,1c-0.3,0.1-0.7,0.2-1.2,0.2
		c-0.6,0-1.1-0.2-1.4-0.6c-0.4-0.4-0.5-1-0.5-1.9v-4h-1.1v-1h1.1v-1.7L239.1,53.1z"/>
	<path d="M243.2,55.1l1.6,4.3c0.2,0.5,0.3,1,0.5,1.5h0c0.1-0.4,0.3-1,0.5-1.5l1.4-4.3h1.4l-2,5.2c-0.9,2.5-1.6,3.8-2.5,4.5
		c-0.6,0.6-1.3,0.8-1.6,0.9l-0.3-1.1c0.3-0.1,0.8-0.3,1.2-0.6c0.4-0.3,0.8-0.8,1.1-1.5c0.1-0.1,0.1-0.2,0.1-0.3c0-0.1,0-0.2-0.1-0.3
		l-2.7-6.7H243.2z"/>
</g>
</svg>
